<?xml version="1.0" standalone="no"?>
<!DOCTYPE svg PUBLIC "-//W3C//DTD SVG 20010904//EN"
 "http://www.w3.org/TR/2001/REC-SVG-20010904/DTD/svg10.dtd">
<svg version="1.0" xmlns="http://www.w3.org/2000/svg"
 width="117.000000pt" height="114.000000pt" viewBox="0 0 1174.000000 1148.000000"
 preserveAspectRatio="xMidYMid meet">

<g transform="translate(0.000000,1148.000000) scale(0.100000,-0.100000)"
fill="#000077" stroke="red">
<path d="M5411 11447 l-115 -12 -115 -419 -116 -420 -185 -37 c-209 -42 -301
-64 -467 -115 -64 -19 -121 -34 -128 -32 -7 2 -135 140 -284 308 -149 168
-277 309 -285 314 -9 6 -32 2 -67 -13 -315 -134 -666 -325 -1006 -547 l-142
-93 70 -208 c38 -114 98 -297 133 -406 l64 -198 -126 -110 c-70 -61 -199 -180
-287 -264 l-161 -153 -29 16 c-74 39 -720 342 -730 342 -12 -1 -190 -213 -297
-356 -154 -204 -323 -475 -429 -685 l-49 -98 300 -307 c165 -168 300 -312 300
-319 0 -7 -14 -45 -31 -85 -51 -121 -126 -333 -169 -477 -22 -75 -41 -138 -43
-139 -2 -2 -195 -27 -430 -57 -235 -30 -430 -56 -433 -60 -9 -9 -42 -156 -69
-307 -46 -264 -58 -408 -59 -714 l-1 -289 412 -121 412 -120 6 -66 c15 -177
38 -343 72 -517 20 -106 35 -194 32 -196 -2 -2 -159 -99 -349 -215 -190 -116
-354 -217 -364 -225 -19 -14 -19 -17 18 -143 91 -307 227 -648 378 -946 75
-150 93 -178 111 -178 12 0 206 34 432 75 240 43 414 70 419 65 5 -5 50 -70
100 -144 50 -74 162 -225 250 -335 l158 -200 102 82 c55 45 302 246 548 446
246 199 450 367 454 372 3 5 -21 42 -53 82 -489 602 -797 1321 -879 2047 -29
262 -14 674 37 960 261 1487 1444 2675 2929 2944 241 43 339 51 655 51 379 0
584 -25 910 -110 1035 -270 1895 -982 2364 -1955 165 -343 270 -692 327 -1090
22 -151 30 -638 15 -799 -53 -528 -223 -1056 -482 -1497 -84 -143 -222 -342
-304 -439 -42 -49 -85 -102 -96 -117 l-19 -26 292 -244 c160 -133 413 -338
561 -455 l269 -212 23 27 c57 69 239 322 337 469 85 127 114 163 131 163 12 0
197 -39 411 -86 374 -82 390 -85 404 -67 25 33 229 455 287 593 63 150 190
522 201 586 l6 41 -108 85 c-98 75 -352 260 -522 378 -44 31 -61 48 -57 60 12
38 65 376 80 515 9 83 18 160 21 171 3 19 57 39 410 155 l407 134 -7 180 c-12
333 -39 610 -81 860 -33 194 -44 243 -58 248 -7 2 -190 28 -407 56 -217 29
-401 56 -409 60 -8 4 -23 38 -33 77 -32 118 -78 253 -145 422 -35 90 -63 170
-61 177 2 8 129 144 284 302 154 158 284 294 288 301 13 22 -179 364 -361 640
-52 79 -148 215 -214 303 -105 139 -123 159 -142 153 -12 -3 -185 -69 -384
-145 -199 -77 -367 -139 -372 -139 -6 0 -93 83 -193 183 -101 101 -227 221
-280 266 -54 46 -98 90 -98 99 0 10 50 187 110 395 61 208 110 386 110 396 0
33 -386 283 -670 434 -108 57 -407 198 -449 212 -21 6 -57 -26 -330 -298
l-306 -305 -155 49 c-162 51 -471 132 -552 144 -26 4 -51 12 -56 19 -5 6 -51
187 -102 401 -107 456 -100 425 -108 425 -4 0 -63 7 -132 16 -163 20 -882 28
-1049 11z m869 -210 l144 -12 57 -235 c31 -129 76 -314 99 -411 l42 -177 142
-27 c197 -37 448 -103 669 -175 l188 -62 299 296 c165 163 307 296 315 296 23
0 296 -133 450 -219 97 -55 370 -225 393 -245 1 -2 -50 -182 -113 -400 -64
-219 -115 -402 -113 -406 2 -4 53 -48 113 -97 217 -177 335 -291 593 -576 l42
-47 363 139 c199 77 374 142 388 146 24 6 32 -1 93 -85 138 -187 350 -521 425
-668 l22 -42 -283 -290 c-156 -160 -284 -297 -286 -305 -2 -9 41 -129 97 -268
87 -221 148 -407 194 -597 l13 -55 380 -51 c471 -63 453 -59 459 -87 13 -56
55 -385 65 -507 6 -74 12 -198 13 -274 l2 -139 -392 -131 -393 -131 -5 -30
c-2 -16 -14 -120 -25 -230 -25 -232 -59 -451 -95 -601 -14 -58 -25 -107 -25
-109 0 -2 107 -79 238 -171 130 -92 286 -204 345 -248 126 -93 121 -65 47
-277 -62 -176 -133 -345 -230 -546 -69 -142 -82 -163 -102 -163 -13 0 -196 38
-407 85 -211 46 -387 82 -391 80 -4 -2 -32 -46 -63 -97 -102 -172 -328 -498
-345 -498 -11 0 -353 273 -579 461 l-203 169 66 88 c354 469 610 1065 709
1657 40 236 50 367 50 640 0 319 -23 537 -90 840 -99 453 -318 951 -592 1344
-296 424 -707 813 -1143 1083 -1154 714 -2594 766 -3796 138 -354 -185 -640
-395 -935 -690 -185 -184 -301 -320 -435 -510 -318 -450 -540 -975 -638 -1510
-49 -268 -60 -397 -60 -685 0 -271 5 -335 46 -584 92 -570 366 -1220 724
-1720 80 -111 94 -135 82 -147 -28 -28 -753 -614 -760 -614 -21 0 -254 316
-360 490 -54 88 -78 120 -93 120 -11 0 -201 -32 -421 -71 -221 -40 -409 -69
-418 -66 -34 13 -221 444 -318 731 -50 149 -58 180 -47 191 8 7 167 106 354
220 187 114 345 212 351 219 9 8 3 49 -22 161 -62 276 -96 509 -110 756 l-7
127 -411 119 -411 120 -3 89 c-6 169 27 522 74 777 9 48 19 89 23 92 4 2 189
27 412 55 222 27 415 54 428 58 21 6 28 23 58 137 50 191 144 464 223 648 l70
162 -43 45 c-24 25 -157 162 -295 304 -139 143 -252 266 -252 274 0 24 122
232 235 402 89 133 157 225 297 400 l26 33 374 -176 c205 -97 376 -177 380
-177 4 0 29 23 55 52 114 122 466 443 690 629 l31 26 -129 392 c-71 216 -129
396 -129 400 0 10 223 149 400 251 174 100 466 242 487 238 10 -2 140 -140
290 -308 149 -168 278 -306 286 -308 8 -2 61 13 118 33 221 77 528 151 843
202 l49 8 116 417 116 417 55 4 c133 8 628 4 760 -6z"/>
<path d="M5758 9990 c2 -60 2 -110 -1 -110 -3 0 -36 47 -73 105 -66 104 -67
105 -106 105 l-39 0 6 -127 c3 -71 8 -147 11 -170 5 -40 8 -43 34 -43 l29 0 3
112 3 112 73 -110 c72 -110 72 -110 108 -106 l36 4 -6 77 c-3 42 -8 118 -12
169 l-7 92 -32 0 -33 0 6 -110z"/>
<path d="M6047 9993 c-4 -58 -7 -137 -7 -175 l0 -68 35 0 35 0 0 53 c0 30 3
109 7 175 l6 122 -35 0 -35 0 -6 -107z"/>
<path d="M6197 10031 c-4 -33 -10 -109 -13 -170 l-7 -110 27 -7 c15 -3 29 -4
31 -2 3 3 9 55 14 117 5 62 11 114 13 117 2 2 30 -53 63 -121 l58 -125 37 0
37 0 7 103 c3 56 9 132 13 170 l6 67 -35 0 -36 0 -7 -117 -8 -118 -61 125
c-60 123 -62 125 -97 128 l-36 3 -6 -60z"/>
<path d="M5300 10063 c-24 -4 -27 -13 -66 -178 -22 -96 -39 -176 -38 -178 2
-2 19 -1 38 1 30 3 35 8 41 39 7 38 9 39 83 47 53 5 53 5 68 -29 10 -25 21
-35 37 -35 57 1 55 10 -28 179 -54 110 -84 161 -94 160 -9 -1 -27 -4 -41 -6z
m56 -146 c12 -28 20 -55 18 -59 -7 -11 -74 -10 -74 0 0 25 24 122 29 117 3 -3
15 -29 27 -58z"/>
<path d="M6589 10011 c-23 -24 -29 -38 -29 -74 0 -53 10 -63 103 -107 54 -27
67 -37 67 -56 0 -57 -111 -52 -133 6 -7 20 -19 30 -38 32 -33 5 -39 -5 -27
-49 13 -49 60 -77 138 -81 60 -4 69 -2 98 23 28 23 32 33 32 75 0 55 -14 70
-107 110 -66 28 -78 42 -63 69 21 40 102 23 120 -25 7 -18 17 -24 41 -24 30 0
31 1 25 32 -12 61 -69 98 -151 98 -38 0 -52 -5 -76 -29z"/>
<path d="M5039 10022 c-14 -6 -13 -24 10 -169 14 -89 29 -164 32 -168 4 -3 18
-3 33 1 33 8 33 30 3 209 -20 114 -25 130 -42 132 -11 1 -27 -1 -36 -5z"/>
<path d="M6886 9964 c-8 -32 1 -40 57 -49 29 -5 37 -11 33 -23 -3 -10 -18 -72
-34 -140 l-29 -122 31 -9 c17 -4 33 -7 35 -5 2 2 18 63 36 136 18 73 37 133
41 133 5 0 27 -4 48 -8 28 -6 41 -5 47 5 23 35 10 44 -108 73 -65 15 -125 30
-134 32 -11 3 -19 -4 -23 -23z"/>
<path d="M4748 9958 c-57 -15 -78 -25 -78 -37 0 -18 76 -310 82 -317 2 -2 44
7 93 20 72 19 95 30 118 56 28 31 29 36 25 114 -3 94 -29 144 -85 171 -39 19
-59 18 -155 -7z m149 -87 c25 -37 32 -116 13 -151 -9 -17 -65 -40 -96 -40 -11
0 -43 102 -60 187 -5 27 -3 32 17 36 13 3 42 4 64 3 33 -1 43 -7 62 -35z"/>
<path d="M4528 9893 c-10 -2 -18 -6 -18 -7 0 -1 16 -49 35 -106 19 -57 35
-108 35 -113 0 -4 -45 32 -100 82 -55 50 -101 91 -103 91 -2 0 -18 -5 -36 -11
-26 -9 -31 -15 -26 -33 4 -11 28 -85 53 -164 46 -139 47 -143 72 -137 14 4 28
9 32 13 3 4 -9 52 -28 107 -18 55 -32 104 -31 109 2 5 47 -30 100 -78 92 -83
99 -88 132 -82 19 4 35 10 35 14 0 3 -24 77 -52 164 -53 161 -55 163 -100 151z"/>
<path d="M7196 9853 c-8 -27 -29 -99 -46 -162 -26 -92 -29 -115 -18 -122 22
-15 56 -10 62 9 10 35 74 268 79 289 3 16 -1 23 -17 27 -38 10 -44 6 -60 -41z"/>
<path d="M7327 9853 c-4 -3 -7 -16 -7 -29 0 -17 9 -25 38 -34 20 -7 40 -15 44
-19 5 -4 -12 -66 -36 -138 l-44 -132 31 -10 c17 -6 34 -8 38 -4 3 5 25 65 48
135 l42 126 45 -15 c47 -16 60 -12 66 21 3 18 -51 40 -243 101 -8 3 -18 2 -22
-2z"/>
<path d="M4193 9770 l-23 -9 39 -108 c72 -198 76 -208 102 -205 43 5 44 18 4
124 -20 57 -46 127 -57 156 -20 53 -26 57 -65 42z"/>
<path d="M3670 9757 c-13 -7 -30 -23 -36 -36 -23 -45 20 -111 72 -111 34 0 36
12 4 31 -37 23 -41 63 -7 80 29 16 28 14 21 33 -7 19 -20 20 -54 3z"/>
<path d="M7611 9617 c-56 -126 -63 -169 -30 -211 46 -59 149 -84 198 -49 23
16 131 227 131 256 0 13 -48 42 -56 34 -2 -2 -28 -56 -58 -119 -59 -124 -75
-140 -122 -116 -58 28 -57 38 20 213 l35 80 -22 12 c-12 7 -27 12 -33 13 -7 0
-35 -51 -63 -113z"/>
<path d="M3685 9577 c-133 -69 -367 -219 -465 -297 -110 -89 -248 -197 -275
-217 l-30 -22 20 -21 21 -20 34 25 c36 26 50 23 71 -18 8 -14 6 -23 -7 -38
-12 -14 -14 -23 -7 -30 13 -13 140 -35 150 -26 4 4 -1 21 -10 36 -9 16 -17 31
-17 34 0 3 18 19 39 36 l39 31 41 -57 40 -57 -30 -33 c-35 -40 -36 -49 -7 -56
16 -5 30 1 49 19 28 27 59 24 59 -5 0 -19 -42 -62 -77 -80 -12 -6 -42 -11 -67
-11 -45 0 -46 -1 -46 -31 l0 -31 53 7 c105 13 217 91 217 151 0 30 -50 84 -78
84 -11 0 -22 8 -24 18 -3 9 -37 63 -76 118 -40 56 -72 106 -72 111 0 22 190
163 219 163 8 0 71 -93 71 -105 0 -3 -21 -5 -47 -5 l-48 1 28 23 c27 21 27 23
9 39 -16 15 -20 15 -47 -3 -63 -42 -80 -92 -50 -150 34 -66 115 -68 183 -6
l23 21 18 -24 c16 -21 21 -22 42 -11 13 7 25 14 27 15 2 1 -32 58 -74 125
l-78 123 30 24 c49 40 202 114 209 102 9 -13 11 -11 -53 -43 -86 -44 -94 -113
-15 -135 58 -17 77 -13 118 19 21 17 44 30 51 30 21 0 17 -54 -5 -81 -16 -20
-29 -24 -71 -24 -43 0 -55 -4 -67 -22 -13 -20 -12 -23 9 -37 19 -12 31 -14 59
-6 19 6 64 7 103 4 53 -5 70 -4 77 7 19 30 10 39 -38 39 -38 1 -44 3 -30 11
25 15 50 68 43 93 -9 37 -46 76 -71 76 -13 0 -44 -17 -69 -39 -32 -28 -51 -38
-66 -34 -34 9 -19 34 40 69 30 18 60 35 65 37 6 2 3 18 -7 40 -17 35 -17 36 8
51 27 19 29 25 12 49 -12 15 -26 9 -153 -56z m-157 -379 c-3 -7 -16 -20 -30
-28 -21 -11 -31 -12 -52 -2 -14 6 -26 18 -26 27 0 12 13 15 56 15 40 0 55 -3
52 -12z m-318 -98 c0 -4 -18 -23 -41 -41 l-41 -32 -24 29 c-13 16 -22 32 -21
36 1 4 20 21 42 37 l40 31 23 -26 c12 -14 22 -29 22 -34z"/>
<path d="M7974 9563 c-18 -28 -17 -28 39 -59 15 -8 27 -19 27 -24 0 -6 -29
-61 -65 -122 -36 -62 -65 -116 -65 -120 0 -4 13 -14 28 -22 l29 -15 69 119
c38 66 72 120 77 120 4 0 25 -11 47 -25 l40 -25 14 28 14 28 -118 71 -119 71
-17 -25z"/>
<path d="M8259 9382 c-9 -15 -50 -80 -92 -144 l-76 -117 111 -70 c102 -65 112
-69 124 -53 23 29 16 38 -56 82 -39 23 -73 47 -76 51 -9 15 36 80 49 72 7 -3
38 -24 70 -46 56 -37 59 -38 72 -20 23 29 18 37 -50 81 -36 23 -65 45 -65 49
0 4 8 18 18 31 l17 22 74 -45 c40 -25 75 -45 78 -45 7 0 32 32 33 42 0 6 -201
138 -211 138 -2 0 -11 -12 -20 -28z"/>
<path d="M3072 9312 c-20 -15 -21 -20 -9 -36 13 -18 15 -18 40 -1 22 14 25 21
16 36 -12 23 -18 23 -47 1z"/>
<path d="M8632 9063 c-46 -23 -97 -86 -112 -139 -11 -38 -10 -50 4 -89 20 -52
76 -102 123 -111 60 -11 104 4 154 54 79 80 89 167 26 239 -54 61 -128 79
-195 46z m142 -79 c44 -45 30 -114 -34 -168 -46 -38 -100 -36 -134 5 -31 37
-32 57 -6 110 39 76 124 102 174 53z"/>
<path d="M2688 8818 c-129 -127 -418 -475 -418 -504 0 -7 9 -18 19 -24 16 -8
24 -5 45 22 l25 32 48 -41 c43 -37 48 -45 46 -79 -3 -38 -36 -113 -57 -126 -6
-4 -19 -8 -29 -8 -17 0 -17 2 -3 22 38 54 6 128 -63 149 -64 19 -127 -22 -145
-94 -4 -16 -43 -83 -87 -149 -45 -66 -85 -133 -89 -148 -4 -15 -18 -44 -31
-66 -14 -21 -58 -106 -99 -187 -61 -123 -72 -150 -60 -157 28 -18 39 -10 76
60 20 39 42 70 48 70 21 0 77 -41 73 -53 -2 -6 -20 -16 -40 -20 -38 -9 -46
-27 -28 -56 8 -12 21 -12 88 -2 169 27 173 29 173 66 l0 33 -61 -14 c-34 -8
-63 -13 -64 -12 -2 2 -6 18 -10 36 -4 21 -3 32 5 32 6 0 20 16 31 35 l21 35
64 -36 c36 -20 66 -35 68 -33 9 11 27 51 24 54 -2 2 -56 33 -121 70 -113 64
-118 68 -112 94 10 39 43 102 73 139 l27 32 38 -26 c47 -32 43 -48 -11 -52
-42 -3 -47 -9 -36 -47 5 -20 11 -21 132 -17 79 3 130 9 134 16 4 6 8 24 8 39
0 22 -4 27 -17 23 -10 -2 -42 -8 -70 -11 l-53 -7 0 29 c0 35 50 83 88 83 14 0
45 9 68 20 32 16 48 33 68 73 14 29 28 65 31 80 l6 28 30 -25 c37 -31 41 -32
65 -5 17 18 17 22 4 32 -57 43 -210 170 -210 174 0 2 14 22 31 43 l32 39 46
-41 c186 -164 169 -153 191 -133 11 10 20 22 20 26 0 4 -47 49 -105 99 -58 51
-105 95 -105 99 0 3 46 57 102 119 l101 113 26 -25 25 -25 -72 -75 c-40 -40
-72 -79 -72 -84 0 -28 34 -44 82 -40 66 7 78 21 48 53 l-24 26 37 37 37 37 58
-58 58 -57 21 22 22 21 -99 107 -99 107 22 21 21 22 -20 21 -21 21 -75 -74z
m-390 -624 c31 -21 29 -104 -3 -104 -6 0 -20 -18 -30 -40 -10 -23 -22 -43 -27
-46 -9 -6 -78 33 -78 44 1 22 22 37 48 34 20 -2 39 5 57 21 35 29 26 48 -19
40 -39 -6 -52 13 -30 46 18 25 51 27 82 5z m-273 -480 c29 -19 30 -21 10 -68
l-15 -36 -40 20 c-22 11 -40 22 -40 25 0 2 8 20 17 40 19 39 32 43 68 19z"/>
<path d="M8865 8739 l-117 -122 26 -26 26 -25 53 52 52 52 53 -52 52 -53 22
23 22 22 -54 55 -54 55 26 27 26 26 60 -57 c32 -31 63 -56 68 -56 5 0 15 10
23 22 12 20 8 26 -70 99 -46 43 -87 78 -90 79 -4 0 -59 -55 -124 -121z"/>
<path d="M9227 8573 c-14 -17 -13 -21 14 -53 16 -19 29 -37 29 -41 0 -6 -86
-81 -203 -180 -5 -3 2 -19 15 -34 l24 -27 109 92 110 92 31 -37 c28 -33 33
-36 53 -25 12 6 21 17 19 25 -4 20 -161 204 -174 204 -6 1 -18 -7 -27 -16z"/>
<path d="M9348 8227 c-69 -51 -129 -95 -133 -99 -10 -9 133 -208 149 -208 8 0
19 7 26 15 11 13 10 21 -6 43 -92 126 -89 121 -68 137 50 40 51 39 100 -27 25
-35 47 -64 49 -66 5 -6 45 22 45 31 0 5 -20 37 -45 71 -42 59 -44 64 -27 78
36 31 40 29 94 -46 l54 -74 24 18 24 18 -70 98 c-38 54 -73 99 -79 100 -5 1
-67 -39 -137 -89z"/>
<path d="M9588 7990 c-76 -23 -143 -88 -154 -146 -19 -104 81 -205 181 -180
25 6 25 7 10 36 -12 24 -22 30 -49 30 -68 0 -100 81 -52 133 37 40 102 69 138
62 35 -8 72 -60 62 -90 -14 -46 -13 -61 1 -80 15 -19 15 -19 36 2 49 49 28
164 -39 212 -34 24 -96 34 -134 21z"/>
<path d="M1842 7865 c-10 -21 -9 -26 8 -35 15 -8 22 -6 34 12 11 16 13 25 4
35 -16 20 -34 16 -46 -12z"/>
<path d="M9725 7643 c-82 -41 -151 -77 -153 -78 -2 -2 4 -17 13 -34 l16 -31
69 35 70 35 30 -59 30 -60 -70 -37 -69 -38 15 -28 c8 -15 19 -28 24 -28 9 0
289 136 298 145 6 5 -28 65 -36 65 -4 0 -25 -12 -47 -25 -22 -14 -46 -25 -52
-25 -12 0 -63 89 -63 110 0 5 24 22 54 37 l54 28 -16 31 -17 32 -150 -75z"/>
<path d="M9872 7309 c-140 -56 -152 -63 -146 -82 3 -12 10 -26 14 -31 5 -4 55
10 111 32 57 22 105 39 107 37 2 -2 -33 -49 -77 -105 -83 -103 -91 -122 -68
-154 13 -17 22 -15 171 44 144 57 156 64 150 83 -13 44 -7 44 -167 -17 l-69
-26 21 27 c11 16 49 64 84 108 62 77 64 80 52 109 -7 17 -17 32 -22 33 -4 1
-77 -25 -161 -58z"/>
<path d="M1693 7231 c-13 -22 -27 -29 -75 -38 -141 -27 -221 -130 -173 -222
16 -31 33 -41 73 -41 33 0 45 8 61 37 17 33 14 36 -23 29 -59 -11 -84 43 -43
93 25 30 137 66 137 45 0 -4 -16 -54 -35 -113 -19 -58 -41 -134 -50 -168 -8
-35 -22 -89 -30 -120 -8 -32 -17 -75 -20 -96 -5 -31 -22 -54 -89 -120 -46 -45
-96 -104 -111 -131 -64 -110 -12 -242 88 -222 27 5 27 5 27 -53 l0 -58 -82
-51 c-46 -29 -89 -56 -96 -60 -12 -8 -11 -15 3 -41 19 -38 18 -38 108 48 l58
56 -7 -250 c-4 -189 -2 -302 11 -460 26 -333 25 -329 58 -333 23 -3 27 0 27
21 0 22 5 25 58 30 60 6 92 30 92 68 0 31 15 22 56 -31 21 -27 41 -50 45 -50
4 0 13 10 22 23 14 21 12 25 -50 95 l-65 72 56 0 c55 0 56 0 56 30 l0 29 -147
3 -148 3 -3 41 -3 41 77 6 c42 4 108 7 146 7 l68 0 0 30 0 30 -144 0 -144 0
-9 43 c-13 66 -5 187 13 187 12 0 13 -10 8 -49 -8 -63 6 -91 47 -91 19 0 38 9
54 26 20 21 26 23 43 13 44 -27 112 28 112 92 0 24 -17 89 -35 132 -6 14 -2
17 24 17 28 0 31 3 31 30 0 17 -1 30 -2 31 -2 0 -66 6 -143 12 l-140 12 -3 53
c-4 61 -13 58 133 37 149 -21 155 -21 155 14 0 34 3 33 -157 52 -56 7 -107 15
-112 19 -11 6 -20 105 -11 113 3 3 67 -7 143 -21 119 -23 140 -24 147 -12 26
41 15 47 -133 75 l-143 27 7 75 c4 41 10 77 12 80 3 2 20 0 38 -5 29 -7 35
-13 37 -40 2 -18 5 -32 8 -32 3 0 21 9 42 19 49 26 86 61 75 72 -5 5 -49 19
-96 31 l-87 21 6 36 c4 20 8 38 10 40 2 2 62 -11 133 -29 71 -17 134 -29 140
-25 6 3 11 17 11 30 0 18 -7 26 -27 32 -16 3 -75 18 -133 33 -125 31 -124 28
-84 168 34 123 33 122 64 110 24 -10 25 -10 4 -18 -37 -15 -45 -103 -14 -143
28 -35 79 -44 119 -21 30 18 61 67 61 96 0 23 10 27 38 17 21 -8 29 -7 39 8
24 31 10 45 -76 74 -47 16 -89 33 -94 38 -14 14 15 66 39 69 20 3 66 -39 76
-70 6 -17 58 6 58 25 0 27 -46 82 -83 100 -31 16 -42 17 -72 7 -36 -12 -65
-51 -65 -89 0 -24 -11 -33 -28 -22 -10 6 -10 18 -3 52 19 84 48 154 62 151 8
-2 65 -23 127 -47 61 -25 119 -45 126 -45 18 0 32 38 19 51 -5 5 -63 31 -128
57 l-120 49 3 35 c2 29 -1 37 -19 41 -15 4 -25 -1 -36 -22z m75 -434 c17 -14
7 -57 -19 -79 -38 -32 -67 3 -54 69 6 32 9 34 33 28 15 -4 33 -12 40 -18z
m-302 -415 c-9 -33 -16 -80 -16 -105 0 -45 -11 -56 -57 -57 -23 0 -53 39 -53
68 0 40 41 120 91 176 l44 50 3 -36 c2 -20 -4 -63 -12 -96z m122 -588 l61 -7
21 -49 c25 -58 23 -116 -3 -132 -24 -15 -47 15 -47 62 0 26 -4 33 -17 30 -14
-2 -19 -15 -21 -48 -6 -113 -32 -125 -32 -15 l0 75 -34 0 c-42 0 -45 4 -39 53
6 42 6 42 111 31z m16 -620 c19 -19 21 -68 4 -81 -7 -6 -34 -13 -60 -15 l-48
-6 0 59 0 59 44 0 c27 0 51 -6 60 -16z"/>
<path d="M10033 6999 c-155 -29 -211 -171 -112 -284 55 -63 155 -67 241 -10
53 35 71 75 66 147 -8 111 -83 168 -195 147z m115 -96 c26 -28 29 -78 7 -109
-38 -55 -154 -73 -194 -30 -43 46 -27 116 34 149 59 31 118 28 153 -10z"/>
<path d="M10250 6632 c-38 -5 -291 -69 -296 -75 -3 -2 8 -55 23 -118 27 -110
29 -114 53 -111 14 2 27 6 29 8 2 2 -4 40 -13 85 -10 44 -16 82 -14 83 1 2 63
18 135 36 133 32 133 32 127 59 -8 34 -14 38 -44 33z"/>
<path d="M10110 6288 c-57 -30 -83 -73 -83 -143 0 -92 53 -154 140 -162 104
-10 195 43 214 125 17 75 -18 154 -81 187 -44 23 -138 19 -190 -7z m185 -73
c18 -17 25 -35 25 -63 0 -48 -26 -77 -82 -93 -85 -22 -148 14 -148 86 0 63 43
93 133 94 38 1 53 -4 72 -24z"/>
<path d="M10186 5919 c-83 -20 -126 -74 -126 -158 0 -39 6 -56 26 -80 22 -26
23 -32 10 -37 -9 -3 -16 -18 -16 -31 0 -25 2 -25 46 -19 26 3 66 6 90 6 l44 0
0 59 c0 75 -6 91 -36 91 -21 0 -24 -4 -24 -40 0 -48 -18 -53 -55 -15 -27 26
-33 72 -15 106 16 29 64 49 120 49 44 0 56 -5 81 -29 38 -38 39 -84 3 -122
-21 -22 -25 -33 -19 -58 6 -31 7 -31 36 -15 17 8 39 29 50 47 27 44 23 139 -9
184 -38 54 -128 81 -206 62z"/>
<path d="M10300 5485 c-96 -50 -111 -54 -173 -55 l-68 0 3 -32 3 -33 63 -3
c56 -3 74 -10 166 -62 57 -33 107 -60 110 -60 3 0 6 17 6 38 0 37 -2 39 -70
72 -38 19 -70 37 -70 40 0 4 32 21 70 38 l70 31 0 40 c0 23 -1 41 -2 41 -2 0
-50 -25 -108 -55z"/>
<path d="M1322 5363 c-82 -58 -89 -67 -73 -92 6 -10 13 -10 27 -3 32 18 137
129 132 142 -2 7 -37 -13 -86 -47z"/>
<path d="M1342 5270 c-28 -36 -52 -67 -52 -71 0 -3 9 -14 19 -23 19 -17 21
-16 56 54 52 103 42 120 -23 40z"/>
<path d="M10036 5062 c-3 -5 -8 -56 -12 -113 -7 -102 -6 -105 19 -135 35 -41
80 -50 123 -25 32 19 33 19 50 0 24 -26 76 -25 109 4 25 22 35 56 49 184 l7
52 -33 5 c-33 6 -288 36 -300 36 -4 0 -9 -4 -12 -8z m136 -126 c-4 -63 -17
-86 -45 -86 -34 0 -47 19 -47 66 0 67 7 75 54 72 l41 -3 -3 -49z m117 37 c22
-6 23 -10 18 -56 -7 -57 -22 -79 -51 -75 -18 3 -21 11 -24 57 -5 81 2 89 57
74z"/>
<path d="M1513 4742 c-13 -8 13 -155 63 -351 l24 -94 -41 -40 c-55 -56 -79
-106 -79 -166 0 -101 94 -158 156 -95 18 18 24 32 20 47 -3 12 -6 28 -6 36 0
10 -9 6 -28 -12 -15 -15 -36 -27 -45 -27 -27 0 -50 45 -43 83 6 32 59 107 77
107 11 0 34 -53 61 -140 11 -36 26 -75 34 -88 8 -12 30 -64 48 -115 44 -122
123 -296 223 -492 101 -199 103 -201 131 -186 18 10 20 16 12 31 -16 30 -12
38 30 60 l40 20 20 -32 c11 -18 20 -36 20 -40 0 -4 -19 -19 -42 -35 -53 -35
-60 -72 -25 -123 19 -29 29 -35 56 -33 42 2 47 7 33 38 -8 17 -20 25 -38 25
-33 0 -27 19 15 44 32 18 32 18 55 -3 12 -11 28 -21 34 -21 29 0 53 99 36 144
-5 14 -10 14 -38 2 -32 -13 -34 -13 -50 14 -9 16 -16 33 -16 39 0 6 25 23 55
38 46 23 54 31 49 48 -13 42 -23 40 -144 -23 -66 -34 -124 -62 -129 -62 -8 0
-61 81 -61 93 0 2 61 30 135 61 l134 58 -14 29 -15 28 -73 -31 c-39 -17 -96
-41 -126 -54 -29 -13 -57 -24 -61 -24 -15 0 -110 191 -110 221 0 4 17 13 37
18 59 17 80 -17 48 -78 -13 -27 -13 -30 10 -51 14 -13 27 -22 29 -19 2 2 36
61 76 132 71 124 72 128 55 147 -10 11 -22 20 -27 20 -4 0 -23 -29 -40 -65
l-32 -64 -18 29 c-21 35 -55 39 -119 13 -41 -16 -43 -16 -59 4 -9 12 -36 76
-60 143 -35 100 -40 124 -29 131 28 18 38 7 64 -71 29 -86 50 -110 99 -110 20
0 39 11 61 35 53 55 82 155 46 155 -5 0 -22 -23 -38 -52 -33 -61 -55 -78 -80
-62 -20 13 -58 107 -50 126 2 7 37 22 76 33 59 16 71 23 71 40 0 46 -10 46
-149 5 -74 -22 -137 -37 -142 -35 -10 7 -32 75 -26 82 3 3 63 22 134 43 125
37 128 39 126 65 -1 15 -4 29 -7 32 -3 3 -189 -47 -264 -72 -15 -5 -36 40 -52
110 -13 56 -2 75 42 75 25 0 32 -6 45 -40 l16 -39 30 17 c40 23 77 80 77 117
-1 26 -11 62 -34 117 -6 13 -1 17 26 20 30 3 33 5 30 33 -2 17 -5 31 -6 33 -2
1 -65 -9 -141 -24 -145 -26 -154 -25 -155 19 0 18 -25 23 -47 9z m242 -117
c18 -17 25 -35 25 -63 0 -21 -3 -41 -6 -45 -4 -3 -23 5 -43 18 -41 29 -72 31
-105 10 -23 -15 -24 -15 -32 22 -4 21 -8 42 -8 48 -1 9 83 31 127 34 10 0 29
-10 42 -24z"/>
<path d="M10052 4700 c-67 -16 -112 -82 -112 -166 0 -91 67 -151 180 -161 89
-8 148 33 171 117 30 114 -34 195 -166 213 -22 3 -55 2 -73 -3z m125 -85 c97
-40 70 -175 -36 -175 -45 0 -116 32 -130 58 -28 52 -3 115 52 131 34 9 64 6
114 -14z"/>
<path d="M9881 4329 c-8 -22 -7 -31 2 -34 7 -3 64 -23 127 -44 63 -22 108 -40
100 -40 -9 -1 -70 6 -135 14 -66 8 -121 15 -122 15 0 0 -6 -15 -12 -32 -14
-39 -18 -34 117 -115 51 -31 91 -57 89 -59 -2 -2 -56 14 -121 36 l-117 39 -9
-25 c-6 -14 -10 -29 -10 -33 0 -7 295 -111 316 -111 10 0 34 62 34 88 0 6 -43
37 -95 68 -53 31 -98 61 -101 66 -4 6 42 8 121 6 l127 -3 13 43 c15 50 32 39
-150 101 -165 57 -161 56 -174 20z"/>
<path d="M9724 3902 c-49 -103 -55 -159 -21 -198 21 -24 33 -29 74 -30 39 0
54 -6 75 -27 29 -29 73 -36 109 -17 20 11 112 185 107 201 -3 8 -216 112 -285
140 -21 8 -26 2 -59 -69z m114 -30 l32 -18 -27 -54 c-22 -44 -33 -56 -55 -58
-21 -3 -30 2 -39 21 -9 19 -7 34 11 76 12 28 28 51 34 51 6 -1 26 -9 44 -18z
m146 -71 c3 -4 -6 -31 -19 -60 -20 -42 -29 -52 -46 -49 -38 5 -43 29 -19 85
21 50 22 51 51 41 16 -5 31 -13 33 -17z"/>
<path d="M9608 3668 c-16 -35 -16 -36 10 -61 l26 -27 -27 -56 c-28 -56 -28
-56 -66 -51 -36 4 -40 2 -54 -29 l-16 -33 32 -6 c69 -11 273 -35 302 -35 24 0
35 6 43 25 7 14 12 32 12 39 0 7 -55 70 -122 141 l-123 128 -17 -35z m132
-184 l45 -46 -50 6 c-87 12 -87 12 -68 52 9 18 19 34 23 34 3 0 26 -21 50 -46z"/>
<path d="M9404 3315 c-19 -29 -20 -28 43 -69 38 -25 58 -50 103 -128 30 -53
58 -100 61 -103 4 -3 16 7 28 24 l21 30 -40 62 c-22 34 -40 65 -40 69 0 3 26
3 58 -1 96 -12 98 -12 121 26 l20 35 -22 1 c-12 0 -68 4 -123 8 -90 6 -107 11
-151 39 -27 18 -53 32 -56 32 -4 0 -14 -11 -23 -25z"/>
<path d="M5869 8698 c-52 -65 -133 -190 -184 -282 -35 -63 -39 -67 -52 -50
-94 131 -274 224 -463 240 -91 8 -90 10 -69 -85 11 -51 6 -113 -23 -315 l-11
-79 -26 30 c-52 61 -161 124 -255 149 -58 16 -224 18 -246 4 -13 -8 -10 -22
18 -102 34 -98 62 -226 62 -285 l0 -35 -37 34 c-88 79 -191 118 -311 118 -81
0 -161 -20 -183 -46 -9 -12 -3 -25 38 -72 27 -31 59 -71 71 -89 26 -37 85
-174 78 -181 -3 -2 -19 0 -36 6 -98 35 -246 21 -325 -29 -37 -24 -105 -107
-105 -129 0 -3 30 -25 66 -49 80 -53 140 -130 202 -261 132 -281 173 -358 216
-407 57 -63 148 -125 218 -149 29 -9 55 -18 57 -20 2 -2 -24 -33 -57 -69 -61
-65 -124 -151 -156 -214 -28 -53 -96 -121 -148 -147 -40 -20 -48 -29 -48 -52
0 -50 98 -177 193 -248 68 -51 167 -104 267 -141 141 -54 349 -41 574 37 65
22 125 38 134 35 10 -3 39 -27 66 -55 56 -57 168 -118 274 -150 40 -12 72 -28
72 -35 0 -7 -7 -29 -15 -49 -9 -20 -27 -85 -42 -144 -23 -92 -27 -129 -27
-267 -1 -88 3 -191 7 -228 l9 -68 -54 8 c-106 16 -286 7 -408 -20 -180 -40
-289 -51 -502 -51 l-197 1 -358 -450 c-197 -248 -359 -454 -361 -458 -2 -4 19
-41 46 -81 112 -166 127 -234 72 -321 -16 -26 -26 -47 -22 -48 4 0 375 0 825
1 l817 1 61 -40 c170 -114 404 -107 565 15 l31 24 844 0 843 0 -46 48 c-61 63
-72 86 -71 158 0 45 10 83 38 153 30 75 35 98 27 115 -6 11 -123 208 -259 436
l-249 415 -124 -3 c-150 -4 -213 7 -435 78 -196 62 -298 76 -449 60 -58 -6
-144 -22 -191 -35 -47 -14 -87 -25 -90 -25 -30 0 -45 339 -21 476 17 99 71
272 89 290 7 6 46 18 87 28 103 23 206 80 249 138 l34 46 33 -33 c54 -55 226
-106 399 -121 150 -12 326 26 448 98 125 73 252 199 303 300 21 40 31 78 21
78 -45 0 -179 26 -206 40 -54 27 -113 94 -194 215 -66 100 -118 155 -196 205
-23 16 -23 16 47 44 167 65 284 180 416 407 165 284 255 396 359 447 26 13 47
29 47 36 0 22 -43 61 -95 86 -43 21 -67 25 -170 28 -108 4 -129 1 -195 -21
-41 -14 -76 -24 -78 -22 -1 1 11 38 28 80 31 78 73 147 132 217 31 37 31 38
13 58 -24 27 -105 50 -174 50 -59 0 -196 -29 -257 -55 -21 -8 -39 -14 -41 -11
-7 6 35 197 57 260 26 77 26 82 -11 95 -94 33 -281 -11 -404 -95 l-38 -25 6
83 c4 46 18 128 33 183 40 150 44 139 -56 143 -158 6 -277 -39 -416 -157 l-81
-69 -31 64 c-60 121 -222 364 -244 364 -4 0 -26 -24 -49 -52z m137 -265 c82
-113 168 -334 216 -552 18 -80 22 -130 22 -301 1 -227 -10 -308 -66 -473 -56
-170 -110 -247 -203 -293 -55 -26 -56 -26 -101 -9 -74 28 -156 112 -202 208
-127 260 -147 586 -57 929 50 195 157 426 247 538 l50 61 25 -23 c14 -13 45
-51 69 -85z m-678 17 c84 -40 169 -125 211 -212 l32 -67 -41 -132 c-63 -204
-83 -335 -84 -529 -1 -182 10 -256 56 -390 33 -93 72 -167 125 -237 19 -25 32
-47 29 -50 -9 -9 -128 27 -172 52 -184 107 -327 347 -355 598 -13 113 0 262
47 550 19 116 40 265 46 330 10 94 15 117 28 117 8 0 43 -13 78 -30z m1287
-37 c-40 -104 -48 -302 -31 -753 7 -197 6 -251 -8 -330 -43 -259 -147 -427
-327 -524 -46 -26 -50 -26 -78 -11 l-31 15 37 48 c72 94 146 286 175 456 7 39
12 150 12 246 -1 198 -16 306 -70 493 -19 65 -34 124 -34 131 0 21 67 92 133
142 107 81 240 133 222 87z m-1782 -242 c57 -28 125 -88 172 -151 l37 -50 -17
-123 c-20 -142 -23 -362 -6 -460 18 -107 57 -216 107 -302 60 -102 184 -227
284 -286 l75 -44 -43 -3 c-62 -5 -206 34 -286 76 -146 76 -290 262 -355 459
-41 123 -61 271 -72 538 -5 127 -13 250 -18 275 -6 25 -10 58 -11 74 0 28 1
28 44 24 24 -3 64 -15 89 -27z m2174 -103 c-10 -130 -67 -559 -88 -662 -64
-315 -194 -519 -392 -615 -63 -31 -147 -51 -147 -35 1 5 21 25 46 44 88 68
186 223 234 370 49 151 62 328 51 667 l-5 133 29 30 c44 46 124 98 185 120 92
33 94 32 87 -52z m-2569 -170 c68 -32 165 -120 182 -163 5 -14 10 -54 10 -87
0 -89 28 -259 57 -352 53 -169 172 -361 286 -461 29 -25 85 -67 126 -93 l74
-47 -39 -3 c-52 -5 -152 22 -244 66 -61 28 -93 53 -170 131 -141 142 -178 220
-301 639 -58 200 -78 251 -134 347 -15 24 -24 49 -20 55 11 18 105 0 173 -32z
m2972 -42 c0 -2 -23 -51 -50 -108 -33 -67 -69 -169 -104 -293 -30 -104 -67
-219 -81 -255 -64 -156 -246 -380 -353 -434 -52 -26 -170 -62 -178 -53 -3 2
21 24 53 48 123 95 252 317 302 519 15 63 41 194 56 290 16 96 33 181 39 188
14 19 100 62 166 83 49 16 150 26 150 15z m-3178 -325 c84 -40 109 -75 142
-192 37 -131 87 -265 129 -343 38 -72 165 -208 243 -262 l57 -39 -57 -3 c-167
-9 -328 73 -422 215 -21 32 -73 136 -116 231 -93 209 -113 245 -184 324 -30
33 -54 64 -54 68 0 36 188 36 262 1z m3468 -38 c0 -9 -16 -33 -76 -119 -23
-33 -81 -133 -129 -224 -149 -282 -216 -359 -381 -441 -99 -49 -110 -52 -199
-57 -52 -2 -95 -2 -95 0 0 3 30 23 66 44 68 40 174 143 257 251 59 78 117 185
153 288 23 63 40 91 79 131 58 59 126 101 193 119 52 15 132 19 132 8z m-1650
-824 c131 -30 285 -152 344 -274 59 -120 45 -248 -36 -320 -67 -61 -119 -80
-224 -80 -82 0 -96 3 -155 33 l-64 33 -65 -28 c-57 -24 -78 -28 -170 -28 -96
0 -109 2 -151 27 -141 83 -187 232 -113 370 41 75 152 189 217 221 29 15 82
34 118 41 76 17 236 20 299 5z m-640 -86 c0 -4 -11 -18 -24 -32 -13 -15 -50
-75 -82 -135 -66 -121 -95 -151 -214 -214 -99 -53 -179 -78 -314 -98 -123 -18
-368 -15 -419 5 l-29 11 30 38 c16 20 65 92 111 159 127 189 190 233 368 258
102 14 573 20 573 8z m1146 -23 c43 -6 144 -14 224 -19 87 -6 164 -16 193 -26
64 -23 123 -82 232 -235 99 -138 155 -196 221 -231 24 -13 44 -27 44 -31 0
-14 -108 -59 -175 -73 -179 -38 -410 -4 -616 92 -89 41 -96 52 -109 165 -13
109 -25 148 -81 260 -27 54 -49 100 -49 103 0 7 27 6 116 -5z m-1291 -502 c7
-71 6 -73 -22 -97 l-28 -24 -3 84 c-2 70 0 86 14 96 10 7 21 13 25 13 3 0 10
-33 14 -72z m-125 -67 c0 -82 -2 -91 -22 -105 -43 -31 -48 -23 -48 79 0 90 1
96 23 105 45 18 47 15 47 -79z m-132 -47 c-5 -98 -12 -114 -50 -114 -16 0 -18
11 -18 99 0 104 2 109 49 110 l24 1 -5 -96z m-138 -23 c0 -99 0 -99 -26 -105
-15 -4 -31 -3 -36 2 -5 5 -8 49 -6 97 3 94 5 97 61 104 4 1 7 -44 7 -98z
m-412 65 c2 -2 2 -18 0 -35 l-3 -31 -45 41 -45 40 45 -6 c24 -3 46 -8 48 -9z
m280 -79 l3 -87 -36 0 -35 0 0 84 c0 72 3 85 18 89 43 12 47 5 50 -86z m-138
13 c0 -38 -2 -70 -5 -70 -4 0 -19 7 -35 15 -28 14 -30 20 -30 70 l0 55 35 0
35 0 0 -70z m1799 -91 c-5 -9 -20 -24 -34 -33 l-25 -16 0 79 c0 78 1 80 28 89
27 9 27 9 33 -47 3 -31 2 -63 -2 -72z m-938 111 c15 -9 19 -22 19 -62 l0 -52
-30 29 c-22 21 -30 38 -30 62 0 35 9 40 41 23z m1154 -7 c35 -17 35 -17 35
-80 0 -35 -3 -63 -6 -63 -4 0 -22 9 -40 21 -32 20 -34 23 -34 80 0 32 2 59 5
59 2 0 20 -8 40 -17z m-673 -30 c15 -14 18 -32 18 -130 l0 -113 -29 0 c-60 0
-61 3 -61 118 0 84 3 109 17 124 20 22 31 23 55 1z m318 -82 l0 -99 -31 -11
c-18 -6 -34 -11 -35 -11 -2 0 -4 47 -4 104 0 113 -2 108 58 115 9 1 12 -25 12
-98z m-632 -4 l3 -87 -36 17 -35 17 0 73 0 74 33 -3 32 -3 3 -88z m492 -26 c0
-104 -1 -109 -22 -115 -13 -3 -33 -6 -45 -6 -22 0 -23 3 -23 96 0 115 8 134
55 134 l35 0 0 -109z m-329 -6 c-1 -55 -4 -101 -6 -103 -1 -2 -18 1 -36 6
l-34 8 -5 98 -5 97 45 -3 44 -3 -3 -100z m978 84 c30 -11 31 -13 31 -71 0 -55
-2 -59 -20 -54 -11 3 -29 9 -40 12 -17 5 -20 14 -20 65 0 64 1 65 49 48z m581
-19 c-19 -16 -47 -36 -62 -45 -28 -16 -28 -16 -28 13 0 27 5 30 53 44 74 22
76 21 37 -12z m-412 -72 c3 -52 1 -58 -17 -58 -43 0 -51 10 -51 67 l0 54 33
-3 c32 -3 32 -4 35 -60z m252 18 c0 -39 -3 -44 -25 -48 -24 -5 -25 -3 -25 38
0 41 5 47 43 53 4 0 7 -19 7 -43z m-122 -23 c-3 -44 -5 -48 -30 -51 -27 -3
-28 -2 -28 47 0 50 1 51 31 51 30 0 30 -1 27 -47z m-1108 -221 c0 -4 -12 -42
-25 -85 -61 -189 -75 -447 -37 -635 22 -110 17 -118 -54 -84 -49 24 -56 41
-74 182 -25 202 -2 390 71 585 l19 50 50 -3 c27 -2 50 -7 50 -10z m725 -817
c292 -92 270 -88 432 -93 l153 -4 84 -142 c46 -77 145 -244 220 -370 l136
-228 -147 4 c-116 4 -212 16 -443 56 -373 64 -485 76 -669 69 -194 -7 -336
-44 -465 -122 -32 -19 -62 -35 -67 -35 -13 0 -11 124 6 435 8 149 15 289 15
312 0 42 1 43 58 72 138 70 244 91 427 87 130 -3 149 -6 260 -41z m-1098 10
c75 -7 160 -35 220 -72 l44 -28 -5 -75 c-3 -41 -10 -181 -16 -310 -13 -292
-20 -382 -28 -378 -237 123 -297 139 -542 145 -213 6 -296 -1 -634 -57 -362
-58 -456 -70 -577 -70 l-110 0 60 78 c34 42 172 217 308 387 l248 310 140 -3
c172 -4 325 10 515 48 197 40 212 41 377 25z m-92 -814 c133 -33 275 -102 256
-125 -8 -10 -29 -3 -88 26 -142 69 -208 81 -453 82 -206 0 -228 -2 -530 -46
-377 -57 -485 -68 -640 -68 -95 0 -120 3 -131 16 -11 14 -6 15 57 9 85 -9 269
7 475 41 568 92 588 94 804 89 126 -3 191 -9 250 -24z m1168 19 c70 -6 274
-35 454 -66 241 -40 366 -57 470 -61 90 -4 140 -10 136 -16 -4 -6 -62 -8 -157
-4 -117 4 -219 17 -456 58 -301 52 -308 52 -515 53 -187 0 -219 -3 -290 -22
-84 -23 -206 -77 -256 -113 l-29 -21 -20 24 c-11 12 -19 26 -20 29 0 14 161
89 236 110 132 36 257 44 447 29z m-1303 -90 c133 -17 268 -59 325 -103 35
-27 10 -28 -48 -2 -211 93 -460 102 -917 35 -370 -55 -433 -62 -592 -63 -114
-2 -160 1 -169 11 -10 10 15 12 126 12 158 0 306 15 640 66 367 55 478 63 635
44z m1365 0 c61 -6 229 -30 375 -55 146 -24 326 -51 400 -59 l135 -15 -125 5
c-69 2 -197 15 -285 29 -305 49 -351 55 -476 65 -217 18 -418 -15 -588 -95
-70 -34 -97 -42 -102 -33 -13 21 88 79 206 118 138 46 272 57 460 40z m-726
-250 c53 -102 62 -152 31 -185 -31 -33 -78 -45 -173 -45 -81 0 -132 14 -157
44 -41 51 20 204 133 333 l32 36 47 -53 c26 -29 65 -88 87 -130z m-634 160
c118 -17 295 -70 295 -89 0 -4 -6 -15 -13 -25 -12 -16 -19 -15 -119 13 -261
73 -478 80 -768 23 -228 -45 -349 -56 -535 -48 -200 9 -277 23 -130 25 145 2
299 17 565 57 129 19 271 38 315 43 115 12 308 12 390 1z m1730 -41 c188 -30
305 -43 422 -48 141 -5 161 -8 153 -21 -16 -26 -197 -18 -415 18 -281 46 -401
55 -624 49 -214 -6 -288 -19 -441 -78 -45 -17 -84 -29 -87 -26 -29 30 196 120
363 147 120 19 351 4 629 -41z m-1727 -78 c160 -34 242 -61 242 -82 0 -23 0
-23 -102 1 -175 41 -302 53 -493 47 -100 -3 -240 -15 -315 -26 -185 -28 -397
-37 -545 -22 -66 7 -124 16 -128 21 -5 4 90 5 210 2 233 -5 301 1 533 44 74
15 164 30 200 34 95 13 291 3 398 -19z m1570 14 c81 -9 219 -28 307 -42 115
-20 197 -27 292 -28 139 0 173 -13 72 -28 -68 -9 -207 -2 -414 23 -265 32
-474 42 -616 31 -128 -11 -296 -39 -383 -66 -61 -18 -66 -19 -66 -1 0 15 87
51 190 81 160 45 373 55 618 30z m-1596 -119 c142 -23 248 -50 248 -63 0 -8
-7 -10 -22 -4 -12 4 -363 6 -780 3 l-758 -5 0 27 c0 21 4 26 18 22 9 -3 79
-10 154 -16 155 -11 322 -2 543 29 77 11 163 22 190 25 83 6 319 -4 407 -18z
m1604 14 c71 -6 202 -20 291 -31 116 -15 204 -20 303 -17 77 2 140 2 140 1 0
-1 3 -8 6 -17 6 -15 -65 -16 -757 -16 -420 0 -759 4 -753 8 14 13 237 61 324
71 109 12 298 13 446 1z"/>
<path d="M6260 4641 c0 -30 14 -41 55 -41 42 0 64 18 49 41 -7 12 -104 12
-104 0z"/>
<path d="M6145 4626 c-22 -7 -50 -18 -63 -25 -22 -12 -23 -14 -7 -31 15 -17
18 -17 68 4 53 21 57 25 57 51 0 18 -2 18 -55 1z"/>
<path d="M6432 4618 c2 -18 13 -24 61 -33 52 -10 59 -10 68 6 14 26 13 26 -41
38 -77 17 -92 15 -88 -11z"/>
<path d="M6617 4581 c-6 -26 -3 -28 48 -32 35 -4 40 -1 43 19 2 14 -2 22 -11
22 -8 0 -28 3 -44 6 -25 5 -31 2 -36 -15z"/>
<path d="M6780 4551 c0 -19 34 -31 91 -31 22 0 29 5 29 19 0 21 -26 31 -82 31
-31 0 -38 -4 -38 -19z"/>
<path d="M6987 4543 c-4 -3 -7 -15 -7 -25 0 -15 8 -18 49 -18 46 0 48 1 43 25
-4 21 -10 25 -41 25 -21 0 -41 -3 -44 -7z"/>
<path d="M6195 4506 c-99 -26 -121 -41 -92 -64 9 -8 30 -6 76 8 34 11 76 20
92 20 24 0 29 4 29 25 0 21 -5 25 -27 24 -16 0 -50 -6 -78 -13z"/>
<path d="M6380 4501 c0 -24 5 -27 73 -36 42 -6 47 -4 47 14 0 25 -5 28 -68 37
-49 6 -52 5 -52 -15z"/>
<path d="M6566 4474 c-8 -22 5 -30 61 -39 46 -7 63 -2 63 20 0 19 -7 22 -66
30 -43 5 -52 4 -58 -11z"/>
<path d="M6760 4435 c0 -24 2 -25 65 -25 57 0 65 2 65 19 0 14 -10 20 -46 25
-77 10 -84 9 -84 -19z"/>
<path d="M6975 4422 c-10 -26 -5 -29 48 -36 28 -4 71 -9 95 -12 38 -6 42 -4
42 14 0 28 -7 31 -99 40 -64 6 -81 5 -86 -6z"/>
<path d="M6321 4391 c-7 -5 -11 -17 -7 -27 5 -16 16 -19 68 -19 54 0 64 3 69
20 3 11 1 23 -5 27 -15 11 -108 10 -125 -1z"/>
<path d="M6524 4367 c-3 -11 -1 -23 6 -27 18 -11 89 -21 101 -15 13 9 11 45
-3 45 -7 1 -32 5 -55 9 -38 7 -43 6 -49 -12z"/>
<path d="M6170 4360 c-84 -33 -58 -74 29 -45 48 16 49 17 39 41 -13 28 -9 27
-68 4z"/>
<path d="M6697 4331 c-7 -27 -2 -29 67 -37 56 -7 56 -7 56 20 0 20 -5 26 -22
26 -13 0 -39 3 -59 6 -31 5 -37 3 -42 -15z"/>
<path d="M6900 4298 c0 -22 5 -26 46 -32 78 -10 94 -8 94 13 0 26 -5 28 -78
37 -61 7 -62 6 -62 -18z"/>
<path d="M7116 4285 c-8 -28 12 -36 81 -32 70 3 79 8 65 33 -7 13 -24 17 -75
18 -58 1 -67 -1 -71 -19z"/>
<path d="M6354 4254 c3 -9 6 -20 6 -25 0 -5 24 -9 54 -9 49 0 54 2 58 25 5 25
4 25 -59 25 -55 0 -64 -2 -59 -16z"/>
<path d="M6548 4254 c-19 -18 -7 -43 22 -48 17 -3 43 -8 59 -12 24 -4 29 -1
34 18 4 12 3 26 -1 30 -11 10 -106 21 -114 12z"/>
<path d="M6178 4229 c-42 -21 -46 -30 -23 -49 13 -11 26 -10 70 6 45 15 55 22
55 41 0 19 -5 23 -32 23 -18 -1 -50 -10 -70 -21z"/>
<path d="M6730 4216 c0 -8 -2 -21 -5 -28 -4 -11 12 -17 67 -26 39 -6 76 -9 80
-6 4 3 8 16 8 28 0 21 -6 24 -57 30 -32 4 -66 9 -75 12 -12 3 -18 0 -18 -10z"/>
<path d="M6946 4174 c-4 -14 -5 -28 -3 -30 2 -2 38 -7 80 -10 l77 -7 0 25 c0
24 -4 26 -57 32 -32 4 -65 9 -74 12 -12 3 -19 -4 -23 -22z"/>
<path d="M7167 4145 c-6 -33 -1 -35 83 -42 l70 -6 0 26 c0 28 1 27 -106 41
-38 5 -42 4 -47 -19z"/>
<path d="M5412 4618 c3 -20 9 -23 48 -23 39 0 45 3 48 23 3 20 0 22 -48 22
-48 0 -51 -2 -48 -22z"/>
<path d="M5262 4618 c-48 -9 -52 -12 -46 -31 3 -12 7 -23 8 -24 1 -2 28 3 59
9 49 11 57 15 57 35 0 25 0 25 -78 11z"/>
<path d="M5570 4601 c0 -27 103 -69 125 -51 23 19 19 26 -34 49 -63 27 -91 27
-91 2z"/>
<path d="M5083 4583 c-15 -3 -23 -12 -23 -24 0 -15 7 -19 38 -19 46 0 65 11
56 33 -6 16 -25 19 -71 10z"/>
<path d="M4700 4545 c0 -22 4 -25 40 -25 33 0 40 4 40 19 0 21 -19 31 -56 31
-19 0 -24 -5 -24 -25z"/>
<path d="M4893 4563 c-15 -3 -23 -12 -23 -24 0 -17 7 -19 60 -19 57 0 60 1 60
25 0 22 -4 25 -37 24 -21 -1 -48 -4 -60 -6z"/>
<path d="M5313 4503 c-34 -3 -43 -8 -43 -23 0 -27 10 -30 69 -23 45 5 51 8 51
29 0 17 -5 23 -17 22 -10 -1 -37 -3 -60 -5z"/>
<path d="M5460 4482 c0 -14 14 -20 66 -30 36 -7 80 -20 97 -28 28 -15 31 -15
44 2 7 10 13 21 13 25 0 12 -130 49 -175 49 -36 0 -45 -3 -45 -18z"/>
<path d="M5112 4473 c-27 -4 -33 -8 -30 -26 3 -19 9 -22 43 -20 68 4 84 11 78
33 -5 20 -16 22 -91 13z"/>
<path d="M4943 4452 c-60 -3 -63 -4 -63 -29 0 -26 1 -26 61 -20 68 6 72 8 67
34 -3 16 -11 18 -65 15z"/>
<path d="M4600 4415 l0 -25 100 0 100 0 0 25 0 25 -100 0 -100 0 0 -25z"/>
<path d="M5310 4355 c0 -26 1 -26 68 -23 61 3 67 5 70 26 3 21 0 22 -67 22
-69 0 -71 -1 -71 -25z"/>
<path d="M5148 4363 c-28 -4 -34 -17 -20 -40 6 -9 24 -11 60 -6 47 5 53 8 50
27 -3 22 -33 28 -90 19z"/>
<path d="M5526 4353 c-17 -18 -2 -40 39 -57 44 -18 47 -18 66 0 20 18 20 18
-13 35 -41 20 -83 31 -92 22z"/>
<path d="M4973 4333 c-28 -4 -33 -8 -33 -30 0 -25 1 -25 58 -18 69 9 71 10 65
35 -5 20 -16 22 -90 13z"/>
<path d="M4777 4313 c-57 -4 -58 -5 -55 -31 3 -25 6 -27 43 -24 79 6 95 12 95
38 0 14 -5 23 -12 22 -7 -1 -39 -3 -71 -5z"/>
<path d="M4500 4285 c0 -22 4 -25 39 -25 21 0 53 -3 70 -6 29 -6 31 -5 31 25
l0 31 -70 0 c-68 0 -70 -1 -70 -25z"/>
<path d="M5280 4236 c0 -22 5 -24 55 -28 30 -1 55 -1 55 2 0 3 3 15 6 28 6 21
4 22 -55 22 -58 0 -61 -1 -61 -24z"/>
<path d="M5113 4243 c-16 -3 -23 -11 -23 -28 0 -31 5 -33 68 -22 46 7 52 11
52 33 0 21 -4 24 -37 23 -21 -1 -48 -4 -60 -6z"/>
<path d="M5477 4233 c-21 -20 -4 -42 50 -62 57 -22 57 -22 77 -2 20 20 20 20
-35 46 -55 25 -80 30 -92 18z"/>
<path d="M4960 4215 c-8 -2 -32 -6 -52 -10 -32 -5 -38 -10 -38 -30 0 -21 5
-25 30 -25 16 0 51 5 78 11 45 9 49 12 44 35 -4 23 -18 28 -62 19z"/>
<path d="M4683 4183 c-27 -3 -33 -9 -33 -29 0 -22 4 -24 43 -24 23 0 59 3 80
7 31 5 38 9 35 27 -3 18 -10 21 -48 22 -25 1 -60 -1 -77 -3z"/>
<path d="M4400 4150 l0 -30 96 0 c84 0 95 2 90 16 -3 9 -6 22 -6 30 0 11 -19
14 -90 14 l-90 0 0 -30z"/>
<path d="M5420 2664 c-1012 -49 -2096 -305 -3022 -714 l-117 -52 46 -96 c96
-205 114 -245 111 -253 -2 -4 -88 -51 -193 -103 -177 -88 -445 -240 -445 -252
0 -16 627 -1174 635 -1174 6 0 78 31 160 69 338 155 733 299 1085 396 132 36
195 58 194 67 -1 7 -29 129 -64 271 -34 143 -58 262 -54 267 11 10 338 80 534
114 509 89 903 125 1441 133 614 9 1127 -34 1709 -143 154 -29 521 -112 520
-117 0 -1 -31 -124 -69 -273 l-68 -272 146 -37 c314 -80 770 -244 1130 -407
95 -43 175 -77 177 -76 8 9 617 1152 621 1166 3 13 -26 35 -117 91 -125 75
-485 261 -507 261 -7 0 -13 4 -13 9 0 6 34 84 75 174 41 90 75 168 75 173 0
26 -639 276 -960 377 -647 204 -1231 319 -1941 383 -166 15 -900 27 -1089 18z
m707 -204 c987 -37 1912 -232 2833 -597 91 -36 169 -69 173 -73 11 -10 -332
-750 -347 -750 -7 0 -70 21 -141 46 -298 105 -710 218 -1035 284 -508 102
-943 153 -1470 170 -1020 33 -2047 -106 -3015 -407 -99 -31 -191 -57 -204 -57
-21 -1 -39 31 -193 357 -94 197 -168 361 -165 363 13 14 378 154 569 219 861
294 1712 440 2648 453 52 1 208 -3 347 -8z m-3501 -1290 c196 -418 324 -704
316 -712 -4 -4 -22 -10 -39 -14 l-32 -6 -215 431 c-119 237 -216 435 -216 440
0 7 91 51 97 47 1 -1 41 -85 89 -186z m6598 160 l46 -21 -220 -439 c-121 -242
-222 -440 -224 -440 -15 0 -66 24 -66 31 0 6 70 162 156 347 218 470 252 542
257 542 2 0 25 -9 51 -20z m-6662 -504 l217 -434 -41 -17 c-33 -13 -43 -14
-50 -3 -16 26 -438 835 -438 841 0 8 70 46 85 47 6 0 108 -195 227 -434z
m6853 412 c25 -12 45 -25 45 -28 0 -7 -438 -841 -446 -849 -7 -8 -84 20 -84
31 0 9 432 867 437 868 1 0 23 -10 48 -22z m-7043 -499 c120 -228 216 -419
214 -425 -2 -6 -18 -16 -35 -22 -30 -10 -32 -9 -55 31 -19 33 -363 676 -415
774 -10 21 -8 25 21 43 18 11 37 19 42 17 5 -2 108 -190 228 -418z m7226 401
c24 -15 32 -26 27 -38 -9 -26 -426 -806 -436 -816 -10 -11 -82 20 -77 32 13
33 444 842 448 842 3 0 20 -9 38 -20z m-6582 -362 c15 -15 104 -223 104 -243
0 -15 -60 -39 -71 -28 -10 11 -129 274 -129 286 0 14 80 2 96 -15z m5714 -125
c-68 -146 -70 -148 -101 -146 -17 0 -36 6 -41 11 -6 6 9 55 42 135 50 121 53
126 89 135 87 23 86 27 11 -135z m-5483 74 c6 -7 23 -40 37 -75 l25 -63 -27
-10 c-15 -5 -33 -12 -40 -14 -13 -5 -28 24 -72 134 l-21 54 43 -7 c24 -4 48
-12 55 -19z m5303 13 c0 -13 -61 -162 -71 -174 -6 -7 -79 10 -79 19 0 14 45
123 55 134 7 7 28 17 46 21 48 11 49 11 49 0z m-5090 -50 c112 -25 111 -23 16
-50 l-67 -19 -15 34 c-8 19 -14 37 -14 40 0 8 29 6 80 -5z m4855 -27 c-9 -20
-17 -39 -19 -41 -6 -5 -136 32 -136 39 0 6 120 35 158 38 9 1 9 -8 -3 -36z"/>
<path d="M7044 2298 c3 -13 6 -29 6 -35 0 -7 7 -13 15 -13 34 0 75 -32 109
-87 20 -32 36 -62 36 -68 0 -7 -47 -3 -141 12 -78 13 -143 22 -145 20 -2 -2 2
-17 8 -34 10 -25 18 -32 50 -36 47 -6 68 -22 68 -52 0 -20 -7 -24 -51 -30
l-50 -7 6 -38 c6 -36 5 -38 -35 -54 -47 -18 -83 -20 -111 -6 -49 27 -2 66 67
55 47 -7 50 -3 34 39 -7 20 -16 26 -40 26 -16 0 -30 5 -30 10 0 6 8 10 18 10
29 0 62 29 62 55 0 27 -52 75 -81 75 -11 0 -33 -7 -48 -15 -46 -23 -54 -66
-20 -109 l21 -27 -26 -24 c-30 -28 -33 -53 -11 -96 41 -79 193 -96 211 -24 l6
26 24 -34 c29 -43 72 -61 123 -53 l40 6 -6 -34 c-4 -29 -1 -36 25 -55 l30 -21
6 27 c3 16 15 89 26 163 12 74 23 136 25 138 2 2 34 -1 72 -7 44 -7 72 -17 81
-28 23 -32 10 -47 -46 -57 -52 -10 -53 -10 -46 -40 13 -59 36 -106 67 -132 25
-21 39 -25 79 -22 l48 3 0 -36 c0 -25 7 -42 24 -58 29 -27 25 -39 62 154 15
77 30 143 34 148 3 4 30 3 58 -4 57 -12 58 -12 39 -94 -8 -33 -19 -53 -34 -60
l-21 -11 26 -49 c26 -49 62 -72 62 -41 0 23 15 27 67 16 l49 -11 -10 -50 c-9
-47 -9 -51 16 -76 l26 -26 11 39 c5 21 19 77 31 124 44 178 37 163 76 156 36
-7 37 -5 28 31 -5 18 -23 28 -88 47 -138 42 -634 146 -697 146 -26 0 -32 8
-72 93 -53 112 -92 157 -137 157 -29 0 -32 -3 -26 -22z m-169 -228 c0 -20 -6
-26 -28 -28 -18 -2 -29 2 -33 12 -11 28 4 48 33 44 22 -2 28 -8 28 -28z m311
-99 c-10 -87 -15 -97 -50 -109 -38 -14 -95 -15 -114 -3 -27 17 -8 44 38 55 44
11 45 12 44 49 -1 20 -9 46 -18 56 -9 9 -16 20 -16 22 0 3 28 0 61 -5 l61 -10
-6 -55z m334 -3 c44 -10 51 -15 46 -32 -2 -12 -8 -43 -11 -69 -6 -39 -13 -50
-36 -62 -61 -32 -170 -8 -138 31 6 8 22 14 36 14 60 0 75 31 49 95 -17 39 -17
39 54 23z m383 -87 c31 -12 31 -15 12 -94 -13 -55 -25 -84 -25 -60 0 6 -17 14
-38 18 -59 10 -61 13 -51 75 6 30 12 61 15 69 5 14 35 11 87 -8z"/>
<path d="M5480 2199 c-91 -3 -211 -10 -267 -14 l-102 -8 15 -28 c10 -20 22
-29 38 -29 22 0 24 -5 30 -80 6 -64 12 -86 32 -109 27 -33 83 -55 119 -49 20
4 25 0 27 -20 2 -17 15 -33 36 -45 l33 -19 -7 171 -7 171 86 0 87 0 0 -54 0
-54 -32 2 c-29 1 -33 -2 -36 -27 -3 -24 10 -42 87 -120 72 -74 93 -89 103 -79
10 10 2 23 -40 65 -49 50 -51 54 -35 70 13 13 17 36 17 109 l1 93 78 3 77 3 0
-39 c0 -22 3 -54 6 -71 6 -27 3 -33 -15 -38 -30 -8 -26 -22 18 -71 44 -48 61
-53 61 -17 0 24 3 25 55 25 l55 0 0 -49 c0 -41 4 -51 26 -66 14 -9 29 -14 32
-10 4 4 9 78 10 166 l4 159 58 0 c32 0 62 -5 65 -10 12 -19 -6 -140 -21 -140
-26 0 -23 -19 12 -64 38 -50 61 -58 66 -23 2 12 9 22 16 21 6 -1 31 -2 53 -2
l42 -2 -5 -45 c-5 -40 -2 -48 20 -65 13 -11 28 -20 32 -20 8 0 15 60 26 233
l6 97 39 0 40 0 -15 29 c-15 29 -17 29 -123 36 -60 3 -166 10 -237 15 -140 11
-403 10 -666 -1z m520 -130 l0 -70 -52 3 -53 3 -3 68 -3 67 56 0 55 0 0 -71z
m-640 -18 c0 -73 -2 -80 -25 -95 -44 -29 -62 -21 -69 30 -3 26 -6 69 -6 95 l0
49 50 0 50 0 0 -79z m1010 4 l0 -75 -55 0 -55 0 0 53 c0 89 5 97 61 97 l49 0
0 -75z"/>
<path d="M4690 2120 c-227 -37 -560 -103 -810 -162 -140 -33 -256 -61 -258
-63 -1 -1 7 -13 18 -27 l19 -25 122 29 c66 16 122 28 124 26 2 -2 5 -14 7 -28
3 -23 -2 -26 -92 -50 -144 -39 -149 -47 -60 -79 67 -25 101 -61 83 -90 -11
-16 -31 -18 -70 -6 -18 6 -25 2 -33 -19 -14 -38 -4 -53 49 -71 26 -8 61 -29
76 -45 27 -28 65 -41 65 -22 0 4 -17 25 -39 46 l-38 37 28 29 c46 46 36 105
-22 136 -39 20 -28 32 34 40 38 6 47 4 47 -8 0 -9 7 -47 16 -86 14 -64 19 -72
46 -81 17 -6 33 -11 34 -11 9 0 2 43 -26 160 -38 158 -38 168 -2 176 15 3 34
8 43 10 13 4 20 -15 38 -103 38 -180 39 -183 74 -198 18 -7 33 -12 35 -10 2 1
-11 69 -27 151 -17 81 -31 155 -31 165 0 13 11 19 43 24 23 3 77 13 121 21 43
9 82 12 86 7 4 -4 10 -29 13 -54 l6 -46 -64 -12 c-127 -23 -141 -39 -76 -90
50 -40 71 -40 71 -1 0 25 4 30 35 36 20 3 38 4 41 1 4 -3 11 -31 18 -62 10
-50 15 -59 44 -70 40 -17 40 -22 7 167 -14 78 -25 145 -25 149 0 9 104 29 112
21 3 -4 10 -35 16 -70 8 -58 7 -64 -12 -74 -19 -10 -18 -13 23 -49 51 -45 81
-51 81 -15 0 21 6 25 46 31 25 3 48 4 51 2 2 -3 7 -23 10 -45 4 -33 11 -42 39
-56 33 -15 34 -15 34 7 0 12 -9 85 -20 162 -11 77 -20 143 -20 147 0 4 13 8
28 8 38 0 44 8 25 36 -18 28 -26 29 -183 4z m64 -77 c3 -16 8 -49 12 -74 6
-46 6 -46 -26 -53 -74 -14 -77 -12 -88 62 -5 37 -9 68 -7 70 2 2 64 16 97 21
3 1 9 -11 12 -26z"/>
<path d="M6330 1763 c1 -29 25 -53 54 -53 36 0 74 -21 115 -64 37 -38 51 -44
51 -23 0 19 -97 125 -131 142 -40 21 -89 20 -89 -2z"/>
<path d="M4780 1718 c1 -30 27 -45 83 -50 44 -4 69 -12 103 -36 46 -33 64 -39
64 -23 0 11 -71 70 -120 100 -40 24 -130 30 -130 9z"/>
<path d="M7826 1513 c9 -39 10 -40 43 -46 30 -6 80 -50 117 -102 32 -45 39
-24 10 33 -45 88 -104 142 -156 142 -17 0 -19 -4 -14 -27z"/>
</g>
</svg>
